<svg width="33" height="24" fill="none" xmlns="http://www.w3.org/2000/svg"><path d="M31.219.875H1.064a.902.902 0 0 0-.243 0l-.197.08a.752.752 0 0 0-.173.116.774.774 0 0 0-.173.162l-.07.07a.416.416 0 0 0 0 .104c-.038.07-.069.143-.092.22A1.492 1.492 0 0 0 0 1.915V22.844A1.156 1.156 0 0 0 1.156 24H31.22a1.156 1.156 0 0 0 1.156-1.156V2.03A1.156 1.156 0 0 0 31.219.875ZM16.187 11.062 4.857 3.187H29.01l-12.823 7.875ZM2.313 21.687V4.24l13.216 9.146c.067.039.137.074.209.104h.092c.114.052.235.087.358.104.165-.005.327-.044.475-.116h.08l13.32-8.22v16.43H2.313Z" fill="#fff"/></svg>