<svg width="31" height="30" fill="none" xmlns="http://www.w3.org/2000/svg"><path d="M.755 9.758h6.43V30H.755V9.758ZM4.013 0C1.813 0 .375 1.511.375 3.495c0 1.943 1.396 3.499 3.554 3.499h.041c2.243 0 3.64-1.556 3.64-3.499C7.566 1.511 6.212 0 4.012 0Zm18.958 9.282c-3.413 0-4.942 1.964-5.795 3.341V9.758h-6.431c.085 1.899 0 20.242 0 20.242h6.431V18.695c0-.605.042-1.208.211-1.642.466-1.209 1.524-2.46 3.299-2.46 2.329 0 3.259 1.857 3.259 4.577V30h6.43V18.393c0-6.218-3.172-9.11-7.404-9.11Z" fill="#fff"/></svg>