<svg width="33" height="24" viewBox="0 0 33 24" fill="none" xmlns="http://www.w3.org/2000/svg">
<path d="M31.2187 0.874908H1.15625H1.06375C0.983182 0.863963 0.901504 0.863963 0.820937 0.874908L0.624375 0.955846C0.561472 0.986144 0.503098 1.02506 0.450937 1.07147C0.385157 1.1162 0.326658 1.1708 0.2775 1.23335L0.208125 1.30272C0.203772 1.33727 0.203772 1.37223 0.208125 1.40678C0.170357 1.4769 0.139382 1.55046 0.115625 1.62647C0.0671053 1.71853 0.0283527 1.81541 0 1.91553V2.03116V22.8436C0 23.1503 0.121819 23.4444 0.338658 23.6612C0.555496 23.8781 0.849593 23.9999 1.15625 23.9999H31.2187C31.5254 23.9999 31.8195 23.8781 32.0363 23.6612C32.2532 23.4444 32.375 23.1503 32.375 22.8436V2.03116C32.375 1.7245 32.2532 1.4304 32.0363 1.21357C31.8195 0.996727 31.5254 0.874908 31.2187 0.874908ZM16.1875 11.0615L4.85625 3.18741H29.0103L16.1875 11.0615ZM2.3125 21.6874V4.23959L15.5284 13.3855C15.5954 13.4248 15.6649 13.4596 15.7366 13.4896H15.8291C15.9427 13.5419 16.0635 13.5769 16.1875 13.5937C16.3519 13.5893 16.5136 13.5499 16.6616 13.478H16.7425L30.0625 5.25709V21.6874H2.3125Z" fill="white"/>
</svg>
