<svg width="30" height="30" viewBox="0 0 30 30" fill="none" xmlns="http://www.w3.org/2000/svg">
<path d="M20.8163 2.44898C22.6025 2.44898 24.3155 3.15853 25.5785 4.42153C26.8415 5.68453 27.551 7.39752 27.551 9.18367V20.8163C27.551 22.6025 26.8415 24.3155 25.5785 25.5785C24.3155 26.8415 22.6025 27.551 20.8163 27.551H9.18367C7.39752 27.551 5.68453 26.8415 4.42153 25.5785C3.15853 24.3155 2.44898 22.6025 2.44898 20.8163V9.18367C2.44898 7.39752 3.15853 5.68453 4.42153 4.42153C5.68453 3.15853 7.39752 2.44898 9.18367 2.44898H20.8163ZM20.8163 0H9.18367C6.75025 0.00726762 4.41856 0.977164 2.69786 2.69786C0.977164 4.41856 0.00726762 6.75025 0 9.18367V20.8163C0.00726762 23.2498 0.977164 25.5814 2.69786 27.3021C4.41856 29.0228 6.75025 29.9927 9.18367 30H20.8163C23.2498 29.9927 25.5814 29.0228 27.3021 27.3021C29.0228 25.5814 29.9927 23.2498 30 20.8163V9.18367C29.9927 6.75025 29.0228 4.41856 27.3021 2.69786C25.5814 0.977164 23.2498 0.00726762 20.8163 0Z" fill="white"/>
<path d="M23.002 5.2041C22.6551 5.2041 22.3159 5.30698 22.0275 5.49972C21.739 5.69246 21.5142 5.96641 21.3814 6.28693C21.2487 6.60744 21.2139 6.96013 21.2816 7.30039C21.3493 7.64065 21.5164 7.95319 21.7617 8.19851C22.007 8.44382 22.3195 8.61088 22.6598 8.67856C23.0001 8.74624 23.3527 8.71151 23.6733 8.57874C23.9938 8.44598 24.2677 8.22116 24.4605 7.9327C24.6532 7.64424 24.7561 7.30511 24.7561 6.95818C24.7561 6.72783 24.7107 6.49974 24.6226 6.28693C24.5344 6.07411 24.4052 5.88074 24.2423 5.71786C24.0794 5.55498 23.8861 5.42577 23.6733 5.33762C23.4605 5.24947 23.2324 5.2041 23.002 5.2041Z" fill="white"/>
<path d="M15.0826 9.63356C16.1533 9.63296 17.2001 9.94994 18.0906 10.5444C18.9812 11.1389 19.6753 11.9841 20.0854 12.9732C20.4954 13.9623 20.6028 15.0508 20.3941 16.1009C20.1853 17.1511 19.6698 18.1157 18.9127 18.8728C18.1556 19.6299 17.191 20.1455 16.1408 20.3542C15.0906 20.5629 14.0022 20.4555 13.0131 20.0455C12.024 19.6355 11.1788 18.9413 10.5843 18.0508C9.98981 17.1603 9.67283 16.1135 9.67343 15.0427C9.67586 13.6089 10.2465 12.2345 11.2604 11.2206C12.2743 10.2067 13.6488 9.63599 15.0826 9.63356ZM15.0826 7.18459C13.5283 7.18761 12.0098 7.65131 10.719 8.51709C9.42819 9.38286 8.42298 10.6119 7.83042 12.0487C7.23786 13.4856 7.08454 15.0659 7.38985 16.5899C7.69515 18.1139 8.44536 19.5132 9.54569 20.611C10.646 21.7088 12.0471 22.4557 13.5718 22.7575C15.0965 23.0592 16.6764 22.9022 18.1119 22.3063C19.5474 21.7104 20.7741 20.7023 21.6368 19.4094C22.4996 18.1166 22.9597 16.597 22.9591 15.0427C22.9587 14.0094 22.7546 12.9862 22.3584 12.0318C21.9622 11.0774 21.3817 10.2104 20.6502 9.48058C19.9186 8.75073 19.0503 8.17227 18.095 7.77829C17.1396 7.38432 16.116 7.18257 15.0826 7.18459Z" fill="white"/>
</svg>
