<svg width="31" height="30" viewBox="0 0 31 30" fill="none" xmlns="http://www.w3.org/2000/svg">
<path d="M0.755429 9.75768H7.18479V30H0.755429V9.75768ZM4.01314 0C1.81264 0 0.375 1.51142 0.375 3.49521C0.375 5.43819 1.77057 6.99355 3.929 6.99355H3.97C6.21257 6.99355 7.60914 5.43812 7.60914 3.49521C7.56707 1.51142 6.21264 0 4.01314 0ZM22.9706 9.28217C19.5579 9.28217 18.0289 11.2461 17.176 12.6234V9.75768H10.7447C10.8299 11.6566 10.7447 30 10.7447 30H17.176V18.6953C17.176 18.0898 17.2181 17.4866 17.3873 17.0528C17.8529 15.8442 18.9111 14.5925 20.686 14.5925C23.0147 14.5925 23.9447 16.4496 23.9447 19.1696V29.9999H30.375V18.3926C30.375 12.1751 27.2034 9.28217 22.9706 9.28217Z" fill="white"/>
</svg>
