<svg width="32" height="25" viewBox="0 0 32 25" fill="none" xmlns="http://www.w3.org/2000/svg">
<path d="M0 6.80304L1.29965 8.32914C1.29965 8.32914 3.98041 6.43773 4.874 7.38314C5.76759 8.32914 9.17771 19.7477 10.3164 21.855C11.3102 23.703 14.0517 26.1467 17.0577 24.4006C20.0618 22.6557 30.0529 15.0188 31.8407 6.0012C33.6279 -3.01527 19.818 -1.12734 18.3567 6.72836C22.0112 4.76284 23.9633 7.5273 22.0927 10.6559C20.2247 13.7816 18.519 15.8207 17.6261 15.8207C16.7344 15.8207 16.0477 13.7295 15.0261 10.0729C13.9689 6.29241 13.9761 -0.51655 9.58441 0.255182C5.44235 0.982915 0 6.80304 0 6.80304Z" fill="white"/>
</svg>
