<svg width="30" height="30" fill="none" xmlns="http://www.w3.org/2000/svg"><path d="M20.816 2.449a6.735 6.735 0 0 1 6.735 6.735v11.632a6.735 6.735 0 0 1-6.735 6.735H9.184a6.735 6.735 0 0 1-6.735-6.735V9.184a6.735 6.735 0 0 1 6.735-6.735h11.632Zm0-2.449H9.184A9.211 9.211 0 0 0 0 9.184v11.632A9.211 9.211 0 0 0 9.184 30h11.632A9.211 9.211 0 0 0 30 20.816V9.184A9.211 9.211 0 0 0 20.816 0Z" fill="#fff"/><path d="M23.002 5.204a1.754 1.754 0 1 0 0 3.508 1.754 1.754 0 0 0 0-3.508ZM15.083 9.634a5.412 5.412 0 1 1-5.41 5.409 5.418 5.418 0 0 1 5.41-5.41Zm0-2.45a7.861 7.861 0 1 0 .03 15.723 7.861 7.861 0 0 0-.03-15.722Z" fill="#fff"/></svg>